<svg width="37" height="37" viewBox="0 0 37 37" fill="none" xmlns="http://www.w3.org/2000/svg">
<path fill-rule="evenodd" clip-rule="evenodd" d="M24.2364 13.8675V13.8639C24.5361 13.8639 24.8364 13.8699 25.1367 13.8627C25.5224 13.8531 25.8364 13.5224 25.8364 13.1361C25.8364 12.5612 25.8364 11.9857 25.8364 11.4107C25.8364 10.9982 25.5098 10.6704 25.0985 10.6699C24.5247 10.6699 23.951 10.6693 23.3773 10.6699C22.9665 10.6704 22.6394 10.9994 22.6394 11.4119C22.6388 11.9821 22.637 12.5522 22.6412 13.1224C22.6418 13.2078 22.6579 13.2961 22.6847 13.3767C22.788 13.68 23.0662 13.8663 23.4065 13.8681C23.683 13.8681 23.96 13.8675 24.2364 13.8675ZM18.7015 14.6072C16.6812 14.606 15.0388 16.2316 15.0107 18.2424C14.9815 20.3081 16.6346 21.9445 18.6167 21.9869C20.6788 22.031 22.3468 20.3833 22.3904 18.3791C22.4352 16.3134 20.7683 14.606 18.7015 14.6072ZM11.5647 16.5767V16.6257C11.5647 19.3212 11.5641 22.0167 11.5647 24.7122C11.5647 25.0997 11.9003 25.4334 12.2883 25.4334C16.563 25.434 20.837 25.434 25.1116 25.4334C25.5033 25.4334 25.837 25.1009 25.837 24.7098C25.8376 22.0179 25.837 19.3248 25.837 16.6334V16.5773H24.0985C24.3438 17.3618 24.4191 18.16 24.323 18.9737C24.2268 19.7875 23.9641 20.5445 23.5373 21.2442C23.1104 21.9439 22.5558 22.5248 21.8782 22.9863C20.1206 24.1839 17.8059 24.289 15.9403 23.2418C14.9976 22.7134 14.2573 21.9761 13.7403 21.0251C12.9707 19.6084 12.8477 18.1206 13.2991 16.5767C12.7212 16.5767 12.1468 16.5767 11.5647 16.5767ZM25.988 27.406C26.083 27.3904 26.1779 27.3767 26.2716 27.3564C27.0155 27.1982 27.6233 26.5779 27.7689 25.8298C27.7838 25.7481 27.7958 25.6669 27.8089 25.5857V11.0113C27.7964 10.9319 27.785 10.8513 27.7701 10.7719C27.6101 9.95582 26.9367 9.32239 26.1104 9.20896C26.0758 9.20478 26.043 9.19702 26.0089 9.19105H11.3946C11.3068 9.20717 11.2179 9.21911 11.1313 9.23881C10.3241 9.42269 9.72713 10.0722 9.61191 10.8901C9.60713 10.9242 9.59997 10.9582 9.5946 10.9922V25.606C9.61131 25.6979 9.62445 25.7916 9.64534 25.8836C9.82385 26.6728 10.4973 27.2848 11.2991 27.3881C11.3373 27.3928 11.3767 27.4006 11.4155 27.406H25.988ZM18.7015 36.209C8.81012 36.209 0.791016 28.1898 0.791016 18.2985C0.791016 8.40657 8.81012 0.388062 18.7015 0.388062C28.5928 0.388062 36.6119 8.40657 36.6119 18.2985C36.6119 28.1898 28.5928 36.209 18.7015 36.209Z" fill="#1F394B"/>
</svg>
