<svg width="20" height="20" viewBox="0 0 20 20" fill="none" xmlns="http://www.w3.org/2000/svg">
<path d="M8.41634 16.6667C10.2653 16.6663 12.0609 16.0473 13.5174 14.9083L18.0965 19.4875L19.5695 18.0146L14.9903 13.4354C16.1299 11.9788 16.7492 10.1827 16.7497 8.33333C16.7497 3.73854 13.0111 0 8.41634 0C3.82155 0 0.0830078 3.73854 0.0830078 8.33333C0.0830078 12.9281 3.82155 16.6667 8.41634 16.6667ZM8.41634 2.08333C11.8632 2.08333 14.6663 4.88646 14.6663 8.33333C14.6663 11.7802 11.8632 14.5833 8.41634 14.5833C4.96947 14.5833 2.16634 11.7802 2.16634 8.33333C2.16634 4.88646 4.96947 2.08333 8.41634 2.08333Z" fill="white"/>
</svg>
