<svg width="37" height="37" viewBox="0 0 37 37" fill="none" xmlns="http://www.w3.org/2000/svg">
<path fill-rule="evenodd" clip-rule="evenodd" d="M12.802 13.6907V17.0215H14.4677V22.0185C14.599 26.1045 16.845 26.9558 19.4641 27.2376C20.9865 27.1612 22.8516 26.5976 23.7943 25.849V23.0179C22.5817 24.1964 19.3262 25.3522 18.7423 22.0185L18.6862 16.9666L23.7943 17.0221V13.6358H18.6862L18.7978 9.3606L16.7441 9.41612C16.885 13.0621 14.9471 13.5504 12.802 13.6907ZM18.2981 36.209C8.4068 36.209 0.387695 28.1898 0.387695 18.2985C0.387695 8.40657 8.4068 0.388062 18.2981 0.388062C28.1895 0.388062 36.2086 8.40657 36.2086 18.2985C36.2086 28.1898 28.1895 36.209 18.2981 36.209Z" fill="#1F394B"/>
</svg>
