<svg width="19" height="20" viewBox="0 0 19 20" fill="none" xmlns="http://www.w3.org/2000/svg">
<path d="M9.5 0C6.62812 0 4.29167 2.33646 4.29167 5.20833C4.29167 8.08021 6.62812 10.4167 9.5 10.4167C12.3719 10.4167 14.7083 8.08021 14.7083 5.20833C14.7083 2.33646 12.3719 0 9.5 0ZM9.5 8.33333C7.77708 8.33333 6.375 6.93125 6.375 5.20833C6.375 3.48542 7.77708 2.08333 9.5 2.08333C11.2229 2.08333 12.625 3.48542 12.625 5.20833C12.625 6.93125 11.2229 8.33333 9.5 8.33333ZM18.875 19.7917V18.75C18.875 14.7302 15.6031 11.4583 11.5833 11.4583H7.41667C3.39583 11.4583 0.125 14.7302 0.125 18.75V19.7917H2.20833V18.75C2.20833 15.8781 4.54479 13.5417 7.41667 13.5417H11.5833C14.4552 13.5417 16.7917 15.8781 16.7917 18.75V19.7917H18.875Z" fill="white"/>
</svg>
