<svg width="37" height="37" viewBox="0 0 37 37" fill="none" xmlns="http://www.w3.org/2000/svg">
<path fill-rule="evenodd" clip-rule="evenodd" d="M23.9859 22.6806C23.8199 22.6806 23.7005 22.7272 23.6277 22.8263C23.5555 22.9194 23.5202 23.0794 23.5202 23.3015V23.8364H24.4414V23.3015C24.4414 23.0794 24.4044 22.9194 24.331 22.8263C24.2617 22.7272 24.1441 22.6806 23.9859 22.6806ZM20.3931 22.6621C20.5328 22.6621 20.642 22.7075 20.7178 22.7994C20.7913 22.8913 20.8283 23.0281 20.8283 23.2066V25.9433C20.8283 26.114 20.7966 26.234 20.7369 26.3081C20.6772 26.3839 20.5841 26.4209 20.4564 26.4209C20.368 26.4209 20.285 26.4012 20.205 26.3636C20.1244 26.3266 20.0414 26.2615 19.9572 26.1767V22.8746C20.0283 22.8018 20.0999 22.7475 20.1722 22.7128C20.2444 22.6776 20.3178 22.6621 20.3931 22.6621ZM23.5208 24.6615V25.6597C23.5208 25.9391 23.5549 26.1325 23.6223 26.2412C23.6928 26.3493 23.8092 26.4018 23.9757 26.4018C24.1483 26.4018 24.2689 26.3564 24.3375 26.2651C24.4056 26.1737 24.442 25.9731 24.442 25.6603V25.4185H25.5137V25.6907C25.5137 26.2346 25.3841 26.6436 25.1214 26.92C24.8617 27.194 24.4713 27.3301 23.9525 27.3301C23.4862 27.3301 23.1178 27.1857 22.8498 26.8937C22.5823 26.6036 22.4462 26.203 22.4462 25.6913V23.3116C22.4462 22.8531 22.5949 22.477 22.8892 22.1881C23.1835 21.8985 23.5626 21.754 24.0301 21.754C24.5071 21.754 24.8737 21.8884 25.1304 22.1564C25.3865 22.4239 25.5137 22.809 25.5137 23.3116V24.6633H23.5208V24.6615ZM21.6552 26.9522C21.4934 27.1528 21.2558 27.2513 20.9465 27.2513C20.7417 27.2513 20.5608 27.2143 20.402 27.1367C20.2426 27.0597 20.0922 26.9415 19.9566 26.7779V27.1845H18.9035V20.0012H19.9566V22.3146C20.0981 22.1534 20.2462 22.0293 20.4032 21.9463C20.5626 21.8615 20.722 21.8203 20.8838 21.8203C21.2146 21.8203 21.4659 21.9331 21.639 22.1576C21.8146 22.3839 21.9005 22.7146 21.9005 23.1487V26.0896C21.9005 26.4645 21.8187 26.7516 21.6552 26.9522ZM17.079 27.1845V26.6018C16.885 26.8173 16.6862 26.9815 16.4766 27.0925C16.2683 27.2066 16.0671 27.2609 15.8713 27.2609C15.6295 27.2609 15.4504 27.1839 15.3262 27.0245C15.2062 26.8657 15.1441 26.6316 15.1441 26.3146V21.8836H16.1853V25.9487C16.1853 26.0746 16.2074 26.1648 16.2492 26.2215C16.2952 26.2782 16.3662 26.3057 16.4629 26.3057C16.5393 26.3057 16.6372 26.2687 16.7543 26.1934C16.8719 26.1188 16.9781 26.0245 17.0778 25.9098V21.8836H18.119V27.1839H17.079V27.1845ZM13.4719 21.0448V27.1845H12.2969V21.0448H11.0826V20.0012H14.6862V21.0448H13.4719ZM18.2946 17.6884C18.2946 17.6878 25.5065 17.6991 26.3626 18.554C27.2217 19.4107 27.2313 23.637 27.2313 23.6615C27.2313 23.6615 27.2241 27.9104 26.3626 28.7696C25.5065 29.6233 18.2946 29.6418 18.2946 29.6418C18.2946 29.6418 11.0832 29.6233 10.2253 28.769C9.3668 27.9122 9.36501 23.6931 9.36501 23.6609C9.36501 23.6364 9.3674 19.4101 10.2253 18.5534C11.0838 17.6991 18.2946 17.6878 18.2946 17.6884ZM23.9817 15.4657H22.808V14.8209C22.5943 15.0579 22.3686 15.2406 22.1334 15.3636C21.8993 15.4878 21.6731 15.5499 21.4528 15.5499C21.1793 15.5499 20.9769 15.4627 20.8396 15.289C20.7029 15.1152 20.6337 14.8549 20.6337 14.5063V9.62746H21.805V14.1033C21.805 14.2412 21.8319 14.3415 21.8808 14.403C21.9286 14.4651 22.0098 14.4961 22.119 14.4961C22.2044 14.4961 22.3143 14.4549 22.4462 14.3731C22.5775 14.2913 22.6987 14.1869 22.8074 14.0585V9.62746H23.9811V15.4657H23.9817ZM17.6098 14.4704C17.6928 14.5582 17.8122 14.6012 17.968 14.6012C18.1268 14.6012 18.2522 14.5564 18.3465 14.4681C18.4402 14.3773 18.4868 14.2543 18.4868 14.0991V10.9188C18.4868 10.791 18.439 10.6878 18.3429 10.609C18.2474 10.5307 18.122 10.4919 17.968 10.4919C17.8241 10.4919 17.7083 10.5307 17.6181 10.609C17.5298 10.6878 17.4838 10.791 17.4838 10.9188V14.0991C17.4838 14.2585 17.5268 14.3815 17.6098 14.4704ZM16.7507 9.88239C17.0659 9.61433 17.4916 9.48 18.0235 9.48C18.5083 9.48 18.9071 9.62149 19.2181 9.90448C19.5268 10.1869 19.682 10.551 19.682 10.9958V14.0113C19.682 14.5104 19.5298 14.9015 19.2271 15.1863C18.9208 15.4704 18.5035 15.6125 17.9698 15.6125C17.4575 15.6125 17.0462 15.4657 16.7375 15.1731C16.4313 14.8794 16.2766 14.4848 16.2766 13.9887V10.963C16.2761 10.5099 16.4337 10.1499 16.7507 9.88239ZM13.0814 7.55224H11.7507L13.3232 12.3301V15.4657H14.6444V12.1821L16.1811 7.55224H14.8378L14.0223 10.7152H13.9393L13.0814 7.55224ZM18.2981 36.209C8.4068 36.209 0.387695 28.1898 0.387695 18.2985C0.387695 8.40657 8.4068 0.388062 18.2981 0.388062C28.1895 0.388062 36.2086 8.40657 36.2086 18.2985C36.2086 28.1898 28.1895 36.209 18.2981 36.209Z" fill="#1F394B"/>
</svg>
