<svg xmlns="http://www.w3.org/2000/svg" xmlns:xlink="http://www.w3.org/1999/xlink"><symbol id="fb" viewBox="0 0 37 37">
<path fill-rule="evenodd" clip-rule="evenodd" d="M16.1731 28.0418H20.1994V18.2973H22.8853L23.2412 14.9397H20.1994L20.2036 13.2585C20.2036 12.3833 20.2871 11.9134 21.5433 11.9134H23.2221V8.55522H20.5355C17.3086 8.55522 16.1731 10.1845 16.1731 12.9236V14.9397H14.1618V18.2979H16.1731V28.0418ZM18.7015 36.209C8.81012 36.209 0.791016 28.1898 0.791016 18.2985C0.791016 8.40657 8.81012 0.388062 18.7015 0.388062C28.5928 0.388062 36.6119 8.40657 36.6119 18.2985C36.6119 28.1898 28.5928 36.209 18.7015 36.209Z" fill="#1F394B"/>
</symbol><symbol id="ig" viewBox="0 0 37 37">
<path fill-rule="evenodd" clip-rule="evenodd" d="M24.2364 13.8675V13.8639C24.5361 13.8639 24.8364 13.8699 25.1367 13.8627C25.5224 13.8531 25.8364 13.5224 25.8364 13.1361C25.8364 12.5612 25.8364 11.9857 25.8364 11.4107C25.8364 10.9982 25.5098 10.6704 25.0985 10.6699C24.5247 10.6699 23.951 10.6693 23.3773 10.6699C22.9665 10.6704 22.6394 10.9994 22.6394 11.4119C22.6388 11.9821 22.637 12.5522 22.6412 13.1224C22.6418 13.2078 22.6579 13.2961 22.6847 13.3767C22.788 13.68 23.0662 13.8663 23.4065 13.8681C23.683 13.8681 23.96 13.8675 24.2364 13.8675ZM18.7015 14.6072C16.6812 14.606 15.0388 16.2316 15.0107 18.2424C14.9815 20.3081 16.6346 21.9445 18.6167 21.9869C20.6788 22.031 22.3468 20.3833 22.3904 18.3791C22.4352 16.3134 20.7683 14.606 18.7015 14.6072ZM11.5647 16.5767V16.6257C11.5647 19.3212 11.5641 22.0167 11.5647 24.7122C11.5647 25.0997 11.9003 25.4334 12.2883 25.4334C16.563 25.434 20.837 25.434 25.1116 25.4334C25.5033 25.4334 25.837 25.1009 25.837 24.7098C25.8376 22.0179 25.837 19.3248 25.837 16.6334V16.5773H24.0985C24.3438 17.3618 24.4191 18.16 24.323 18.9737C24.2268 19.7875 23.9641 20.5445 23.5373 21.2442C23.1104 21.9439 22.5558 22.5248 21.8782 22.9863C20.1206 24.1839 17.8059 24.289 15.9403 23.2418C14.9976 22.7134 14.2573 21.9761 13.7403 21.0251C12.9707 19.6084 12.8477 18.1206 13.2991 16.5767C12.7212 16.5767 12.1468 16.5767 11.5647 16.5767ZM25.988 27.406C26.083 27.3904 26.1779 27.3767 26.2716 27.3564C27.0155 27.1982 27.6233 26.5779 27.7689 25.8298C27.7838 25.7481 27.7958 25.6669 27.8089 25.5857V11.0113C27.7964 10.9319 27.785 10.8513 27.7701 10.7719C27.6101 9.95582 26.9367 9.32239 26.1104 9.20896C26.0758 9.20478 26.043 9.19702 26.0089 9.19105H11.3946C11.3068 9.20717 11.2179 9.21911 11.1313 9.23881C10.3241 9.42269 9.72713 10.0722 9.61191 10.8901C9.60713 10.9242 9.59997 10.9582 9.5946 10.9922V25.606C9.61131 25.6979 9.62445 25.7916 9.64534 25.8836C9.82385 26.6728 10.4973 27.2848 11.2991 27.3881C11.3373 27.3928 11.3767 27.4006 11.4155 27.406H25.988ZM18.7015 36.209C8.81012 36.209 0.791016 28.1898 0.791016 18.2985C0.791016 8.40657 8.81012 0.388062 18.7015 0.388062C28.5928 0.388062 36.6119 8.40657 36.6119 18.2985C36.6119 28.1898 28.5928 36.209 18.7015 36.209Z" fill="#1F394B"/>
</symbol><symbol id="logo" viewBox="0 0 122 32">
<path fill-rule="evenodd" clip-rule="evenodd" d="M20.3762 16.9364C20.3594 17.7474 19.6659 18.3962 18.8101 18.3962C17.9599 18.3962 17.2664 17.7474 17.2496 16.9364V2.61764C17.2496 1.79543 17.9487 1.12984 18.8101 1.12984C19.677 1.12984 20.3762 1.79543 20.3762 2.61764V16.9364ZM45.9206 15.415H52.5766H52.6045C53.4659 15.415 54.165 16.0862 54.165 16.9084C54.165 17.7306 53.4659 18.3962 52.6045 18.3962H44.3713H44.3601C43.5043 18.3962 42.8107 17.7474 42.794 16.9364V2.61764C42.794 1.79543 43.4931 1.12984 44.3601 1.12984C45.2214 1.12984 45.9206 1.79543 45.9206 2.61764V15.415ZM27.2056 13.4797C26.5959 13.4797 25.645 14.3187 25.645 14.9731C25.645 15.622 25.88 15.8792 26.2491 16.1477V16.1533L26.842 16.556L27.172 16.7574L27.5188 16.9587L27.8712 17.1545L28.2403 17.3391L28.6151 17.5181L29.001 17.6859L29.3925 17.8369L29.7952 17.9767L30.2091 18.0998L30.6286 18.206L31.0537 18.2955L31.4844 18.3626L31.9207 18.4018L32.3514 18.4186L32.8436 18.413L33.3414 18.385L33.8503 18.3403L34.3705 18.2676L34.9019 18.1613L35.4388 18.0159L35.9814 17.8257L36.5127 17.5684L37.0273 17.2552L37.5083 16.8637L37.9446 16.3994L38.3194 15.8569L38.6158 15.2584L38.8283 14.5984L38.957 13.8936L39.0353 13.2001L39.0017 12.6072L38.9626 11.9584L38.8395 11.3319L38.6382 10.7502L38.3585 10.2077L38.0173 9.72107L37.6258 9.29039L37.1951 8.91005L36.7421 8.58564L36.2666 8.29479L35.78 8.04869L35.2822 7.82496L34.7844 7.62919L34.281 7.45021L33.7776 7.28801L33.2742 7.13699L32.782 6.99716L31.8368 6.72868L31.3781 6.59444L30.953 6.4658L30.5503 6.33156L30.1812 6.19732L29.8512 6.06308L29.5659 5.92325L29.3254 5.78901L29.1352 5.66037L28.9954 5.54291L28.9059 5.43664L28.8444 5.34715L28.8052 5.26325L28.7773 5.15698L28.7661 5.00037L28.7773 4.71511L28.822 4.46341L28.8835 4.26206L28.9674 4.08307L29.0681 3.93206L29.18 3.79222L29.3254 3.66358L29.4932 3.54053L29.6946 3.42307L29.9239 3.3168L30.1812 3.22731L30.4664 3.14341L30.7685 3.08188L31.0929 3.03154L31.4229 2.99798L31.7641 2.9812H32.0269L32.301 2.99239L32.5751 3.00917L32.8547 3.04273L33.1344 3.08188L33.4141 3.12663L33.6881 3.18815L33.9622 3.24968L34.2307 3.32239L34.4936 3.40629L34.7453 3.49578L34.9914 3.59087L35.2263 3.68595L35.45 3.79222L35.657 3.8985C35.8807 4.01595 36.1436 4.08867 36.4176 4.08867C37.279 4.08867 37.9782 3.41748 37.9782 2.59527C37.9782 2.04154 37.6649 1.56052 37.2007 1.30323L36.8819 1.13543L36.5519 0.984412L36.2107 0.838988L35.8639 0.70475L35.5059 0.587291L35.148 0.469833L34.7788 0.369155L34.4041 0.279663L34.0237 0.201357L33.6378 0.134238L33.2519 0.0838988L32.8659 0.0391528L32.4688 0.0111865L32.0773 0H31.6802L31.188 0.022373L30.6846 0.0727123L30.1868 0.145425L29.6834 0.25729L29.18 0.397121L28.6878 0.576105L28.2068 0.794242L27.7369 1.06831L27.2951 1.38713L26.8812 1.76187L26.512 2.19815L26.1932 2.68476L25.9471 3.22171L25.7681 3.79782L25.6618 4.40748L25.6283 5.0563L25.6842 5.64359L25.8296 6.2197L26.0757 6.75665L26.3889 7.23207L26.7637 7.64038L27.1776 7.99276L27.6139 8.2892L28.0669 8.54649L28.5312 8.76462L29.001 8.96039L29.4764 9.13378L29.963 9.29598L30.4496 9.44141L30.9363 9.58683L31.4173 9.72107L31.8927 9.85531L32.3514 9.98955L32.8044 10.1238L33.2351 10.2636L33.6434 10.409L34.0237 10.5545L34.3705 10.7111L34.6837 10.8733L34.9578 11.0355L35.1871 11.2033L35.3773 11.3711L35.5283 11.5389L35.6458 11.7067L35.7353 11.8801L35.808 12.0814L35.8527 12.3163L35.8695 12.6072L35.9143 13.0267L35.8471 13.558L35.78 13.9048L35.6961 14.1733L35.5843 14.3914L35.4668 14.5704L35.3214 14.7214L35.1592 14.8557L34.9634 14.9731L34.7285 15.085L34.46 15.1801L34.158 15.264L33.828 15.3311L33.4812 15.3758L33.112 15.4094L32.7429 15.4262L32.3849 15.4318L32.1332 15.4262L31.8871 15.4038L31.6242 15.3647L31.3613 15.3087L31.0873 15.236L30.8076 15.1521L30.5224 15.057L30.2371 14.9452L29.9518 14.8165L29.6666 14.6879L29.3869 14.5425L29.1129 14.397L28.8444 14.2404L28.5871 14.0782L28.1508 13.7818C27.8879 13.5916 27.8152 13.4797 27.2056 13.4797ZM61.9005 1.27526C62.1075 1.18018 62.3368 1.12984 62.5773 1.12984C63.4386 1.12984 64.1378 1.79543 64.1378 2.61764C64.1378 3.27205 63.7015 3.82578 63.0975 4.02714C62.0236 4.56409 61.2852 5.638 61.2852 6.86851V12.6911C61.2852 13.9328 62.0459 15.0235 63.1366 15.5548C63.7239 15.7674 64.2944 16.5336 64.0763 17.2831C63.8525 18.0326 63.131 18.4354 62.5773 18.4354C62.0236 18.4354 62.1075 18.385 61.9005 18.2899V18.2955C59.6968 17.2999 58.1586 15.1577 58.1586 12.6911V6.86851C58.1586 4.40189 59.6968 2.25967 61.9005 1.26407V1.27526ZM67.5944 18.206C69.6919 17.1769 71.1406 15.085 71.1406 12.6911V6.86851C71.1406 4.46901 69.6863 2.37154 67.5777 1.34797L67.5721 1.35357C67.3316 1.20814 67.0519 1.12984 66.7498 1.12984C65.8885 1.12984 65.1837 1.79543 65.1837 2.61764C65.1837 3.21053 65.5473 3.71951 66.0675 3.96002H66.0619C67.2141 4.4746 68.0139 5.58766 68.0139 6.86851V12.6911C68.0139 13.9719 67.2085 15.085 66.0619 15.5996L66.0675 15.6052C65.5473 15.8457 65.1222 16.3211 65.2509 17.093C65.3851 17.8593 65.8773 18.2284 66.4198 18.3123C66.9624 18.3962 67.3483 18.3515 67.5944 18.206ZM78.5796 16.9364C78.5628 17.7474 77.8692 18.3962 77.0135 18.3962C76.1633 18.3962 75.4697 17.7474 75.4529 16.9364V2.64561V2.61764C75.4529 1.79543 76.1521 1.12984 77.0135 1.12984C77.8804 1.12984 78.5796 1.79543 78.5796 2.61764V2.64561V16.9364ZM112.167 16.9364C112.15 17.7474 111.457 18.3962 110.601 18.3962C109.751 18.3962 109.057 17.7474 109.04 16.9364V2.61764C109.04 1.79543 109.74 1.12984 110.601 1.12984C111.468 1.12984 112.167 1.79543 112.167 2.61764V16.9364ZM88.1273 16.2987C88.474 17.037 88.1329 17.9096 87.3666 18.2564C86.5947 18.6032 85.6718 18.2955 85.2971 17.5684L85.2859 17.5404L81.7957 10.4762H81.1525C80.3079 10.4538 79.6311 9.79378 79.6311 8.98276C79.6311 8.17174 80.3079 7.51733 81.1525 7.49496V7.48936H83.5743C84.5364 7.48936 85.3306 6.73987 85.3306 5.81698C85.3306 4.89409 84.5364 4.13901 83.5743 4.13901H81.1525C80.3079 4.11663 79.6311 3.45663 79.6311 2.64561C79.6311 1.83459 80.3079 1.17458 81.1525 1.1578V1.15221H83.5743C86.2591 1.15221 88.4573 3.24968 88.4573 5.81698C88.4573 7.85852 87.0589 9.60921 85.1293 10.2301L88.1105 16.2708L88.1273 16.2987ZM96.0361 21.0138C96.0473 20.3762 96.5954 19.8616 97.2666 19.8616C97.9434 19.8616 98.4916 20.3762 98.5083 21.0138V25.7178C98.5139 26.2044 98.1951 26.6239 97.7532 26.8029H97.7477L97.7253 26.814H97.7197L97.6917 26.8252L97.6637 26.8308L97.6358 26.842C97.5183 26.8756 97.3953 26.8979 97.2666 26.8979H87.7525C87.0869 26.8812 86.5444 26.361 86.5444 25.7178C86.5444 25.0745 87.0869 24.5488 87.7525 24.5376H96.0305V21.0138H96.0361ZM65.3068 21.0138C65.2956 20.3762 64.7475 19.8616 64.0763 19.8616C63.3995 19.8616 62.8514 20.3762 62.8402 21.0138V25.7178C62.829 26.1932 63.131 26.6071 63.5617 26.7917H63.5673L63.5897 26.8029H63.5953L63.6232 26.814L63.6456 26.8252H63.6512L63.6792 26.8308C63.8022 26.8756 63.9364 26.8979 64.0763 26.8979H73.5904C74.2616 26.8812 74.7985 26.361 74.7985 25.7178C74.7985 25.0745 74.2616 24.5488 73.5904 24.5376H65.3124V21.0138H65.3068ZM114.695 4.13901H117.117C118.051 4.13901 118.817 4.83816 118.873 5.7163V5.81698V13.7258C118.873 14.6487 118.079 15.4038 117.117 15.4038H114.695C113.856 15.4262 113.179 16.0862 113.179 16.8916C113.179 17.7026 113.856 18.3626 114.695 18.385H117.117C119.763 18.385 121.938 16.3435 122 13.8321V13.793V5.57088V5.5485C122 5.42545 121.983 5.3024 121.955 5.19054C121.636 2.91968 119.578 1.15221 117.117 1.15221H114.695V1.1578C113.856 1.18018 113.179 1.83459 113.179 2.64561C113.179 3.45663 113.856 4.11663 114.695 4.13901ZM95.4824 1.27526C95.6893 1.18018 95.9131 1.12984 96.1592 1.12984C97.0205 1.12984 97.7197 1.79543 97.7197 2.61764C97.7197 3.27205 97.289 3.82578 96.6793 4.02714C95.6054 4.56409 94.8727 5.638 94.8727 6.86851V12.6911C94.8727 13.9328 95.6278 15.0235 96.7241 15.5548C97.3058 15.7674 97.7197 16.2148 97.7197 16.9475C97.7197 17.6747 96.7129 18.4354 96.1592 18.4354C95.6054 18.4354 95.6893 18.385 95.4824 18.2899V18.2955C93.2786 17.2999 91.7405 15.1577 91.7405 12.6911V6.86851C91.7405 4.40189 93.2786 2.25967 95.4824 1.26407V1.27526ZM101.171 18.206C103.274 17.1769 104.722 15.085 104.722 12.6911V6.86851C104.722 4.46901 103.268 2.37154 101.16 1.34797L101.154 1.35357C100.919 1.20814 100.634 1.12984 100.332 1.12984C99.4704 1.12984 98.7656 1.79543 98.7656 2.61764C98.7656 3.21053 99.1292 3.71951 99.6494 3.96002H99.6438C100.796 4.4746 101.596 5.58766 101.596 6.86851V12.6911C101.596 13.9719 100.79 15.085 99.6438 15.5996L99.6494 15.6052C99.1292 15.8457 98.7656 16.2372 98.7656 16.9475C98.7656 17.6523 99.7444 18.4354 100.332 18.4354C100.919 18.4354 100.93 18.3515 101.171 18.206ZM84.6874 29.7561H77.7518V28.2907C78.3391 27.8432 78.8648 27.4237 79.3347 27.0322C79.7989 26.6407 80.2128 26.2659 80.5652 25.9079C81.0294 25.4437 81.365 25.0354 81.5664 24.6886C81.7789 24.3362 81.8796 23.9783 81.8796 23.6035C81.8796 23.184 81.751 22.8652 81.4881 22.6415C81.2252 22.4177 80.856 22.3059 80.3862 22.3059C80.1513 22.3059 79.922 22.3339 79.7094 22.3898C79.4913 22.4457 79.2787 22.5184 79.055 22.6079C78.8425 22.703 78.6579 22.7981 78.5069 22.8932C78.3559 22.9883 78.2384 23.061 78.1601 23.1113H77.9811V21.1425C78.244 21.025 78.6635 20.8964 79.2284 20.7733C79.7933 20.6447 80.3415 20.5832 80.8616 20.5832C81.9803 20.5832 82.8305 20.8181 83.4066 21.2935C83.9883 21.7689 84.2735 22.4401 84.2735 23.3015C84.2735 23.8328 84.1449 24.353 83.882 24.8676C83.6191 25.3766 83.1828 25.9191 82.5788 26.5064C82.1984 26.8644 81.8293 27.1832 81.4657 27.4629C81.1077 27.7425 80.8448 27.9439 80.6882 28.0613H84.6874V29.7561ZM3.43424 16.9364C3.41746 17.7474 2.7239 18.3962 1.87373 18.3962C1.01796 18.3962 0.324397 17.7474 0.307617 16.9364V2.61764C0.307617 1.79543 1.01237 1.12984 1.87373 1.12984C2.73509 1.12984 3.43424 1.79543 3.43424 2.61764V2.64561V7.90886L11.2704 1.50458L11.2872 1.4878C11.9416 0.950853 12.9316 1.02356 13.4909 1.64442C14.0558 2.27645 13.9775 3.21612 13.3231 3.75307L13.3007 3.76985L7.05867 8.87649L13.379 15.9184L13.3958 15.9352C13.9607 16.5616 13.8824 17.5013 13.228 18.0382C12.5736 18.5752 11.5836 18.5025 11.0243 17.876L11.0075 17.8593L4.68154 10.8229L3.43424 11.8409V16.9364Z" fill="#FEFEFE"/>
<path d="M19.2855 27.8432C18.9555 27.8432 18.6871 27.5804 18.6871 27.256C18.6871 26.9315 18.9555 26.6631 19.2855 26.6631C19.6211 26.6631 19.8896 26.9315 19.8896 27.256C19.8896 27.5804 19.6211 27.8432 19.2855 27.8432ZM13.8209 27.8432C13.4909 27.8432 13.2224 27.5804 13.2224 27.256C13.2224 26.9315 13.4909 26.6631 13.8209 26.6631C14.1509 26.6631 14.425 26.9315 14.425 27.256C14.425 27.5804 14.1509 27.8432 13.8209 27.8432ZM19.2855 26.4953C18.9555 26.4953 18.6871 26.2268 18.6871 25.9024C18.6871 25.578 18.9555 25.3151 19.2855 25.3151C19.6211 25.3151 19.8896 25.578 19.8896 25.9024C19.8896 26.2268 19.6211 26.4953 19.2855 26.4953ZM13.8209 26.4953C13.4909 26.4953 13.2224 26.2268 13.2224 25.9024C13.2224 25.578 13.4909 25.3151 13.8209 25.3151C14.1509 25.3151 14.425 25.578 14.425 25.9024C14.425 26.2268 14.1509 26.4953 13.8209 26.4953ZM19.2855 25.1585C18.9555 25.1585 18.6871 24.8956 18.6871 24.5656C18.6871 24.2412 18.9555 23.9783 19.2855 23.9783C19.6211 23.9783 19.8896 24.2412 19.8896 24.5656C19.8896 24.8956 19.6211 25.1585 19.2855 25.1585ZM13.8209 25.1585C13.4909 25.1585 13.2224 24.8956 13.2224 24.5656C13.2224 24.2412 13.4909 23.9783 13.8209 23.9783C14.1509 23.9783 14.425 24.2412 14.425 24.5656C14.425 24.8956 14.1509 25.1585 13.8209 25.1585ZM17.9208 23.8217C17.5908 23.8217 17.3223 23.5588 17.3223 23.2344C17.3223 22.91 17.5908 22.6415 17.9208 22.6415C18.2564 22.6415 18.5248 22.91 18.5248 23.2344C18.5248 23.5588 18.2564 23.8217 17.9208 23.8217ZM16.556 23.8217C16.226 23.8217 15.952 23.5588 15.952 23.2344C15.952 22.91 16.226 22.6415 16.556 22.6415C16.886 22.6415 17.1545 22.91 17.1545 23.2344C17.1545 23.5588 16.886 23.8217 16.556 23.8217ZM15.1913 23.8217C14.8557 23.8217 14.5872 23.5588 14.5872 23.2344C14.5872 22.91 14.8557 22.6415 15.1913 22.6415C15.5213 22.6415 15.7897 22.91 15.7897 23.2344C15.7897 23.5588 15.5213 23.8217 15.1913 23.8217ZM17.9208 29.18C17.5908 29.18 17.3223 28.9171 17.3223 28.5927C17.3223 28.2627 17.5908 27.9999 17.9208 27.9999C18.2564 27.9999 18.5248 28.2627 18.5248 28.5927C18.5248 28.9171 18.2564 29.18 17.9208 29.18ZM16.556 29.18C16.226 29.18 15.952 28.9171 15.952 28.5927C15.952 28.2627 16.226 27.9999 16.556 27.9999C16.886 27.9999 17.1545 28.2627 17.1545 28.5927C17.1545 28.9171 16.886 29.18 16.556 29.18ZM15.1913 29.18C14.8557 29.18 14.5872 28.9171 14.5872 28.5927C14.5872 28.2627 14.8557 27.9999 15.1913 27.9999C15.5213 27.9999 15.7897 28.2627 15.7897 28.5927C15.7897 28.9171 15.5213 29.18 15.1913 29.18ZM13.8209 29.18C13.4909 29.18 13.2224 28.9171 13.2224 28.5927C13.2224 28.2627 13.4909 27.9999 13.8209 27.9999C14.1509 27.9999 14.425 28.2627 14.425 28.5927C14.425 28.9171 14.1509 29.18 13.8209 29.18ZM13.8209 30.5112C13.4909 30.5112 13.2224 30.2483 13.2224 29.9239C13.2224 29.5995 13.4909 29.3366 13.8209 29.3366C14.1509 29.3366 14.425 29.5995 14.425 29.9239C14.425 30.2483 14.1509 30.5112 13.8209 30.5112ZM13.8209 31.848C13.4909 31.848 13.2224 31.5851 13.2224 31.2607C13.2224 30.9307 13.4909 30.6678 13.8209 30.6678C14.1509 30.6678 14.425 30.9307 14.425 31.2607C14.425 31.5851 14.1509 31.848 13.8209 31.848ZM21.9871 23.9783C21.6571 23.9783 21.383 24.2412 21.383 24.5712C21.383 24.8956 21.6571 25.1585 21.9871 25.1585C22.3171 25.1585 22.5855 24.8956 22.5855 24.5712C22.5855 24.2412 22.3171 23.9783 21.9871 23.9783ZM21.9871 25.3319C21.6571 25.3319 21.383 25.5948 21.383 25.9192C21.383 26.2436 21.6571 26.5065 21.9871 26.5065C22.3171 26.5065 22.5855 26.2436 22.5855 25.9192C22.5855 25.5948 22.3171 25.3319 21.9871 25.3319ZM21.9871 26.6687C21.6571 26.6687 21.383 26.9315 21.383 27.256C21.383 27.5804 21.6571 27.8488 21.9871 27.8488C22.3171 27.8488 22.5855 27.5804 22.5855 27.256C22.5855 26.9315 22.3171 26.6687 21.9871 26.6687ZM21.9871 27.9999C21.6571 27.9999 21.383 28.2627 21.383 28.5927C21.383 28.9171 21.6571 29.18 21.9871 29.18C22.3171 29.18 22.5855 28.9171 22.5855 28.5927C22.5855 28.2627 22.3171 27.9999 21.9871 27.9999ZM24.7222 22.6415C24.3866 22.6415 24.1181 22.91 24.1181 23.2344C24.1181 23.5588 24.3866 23.8217 24.7222 23.8217C25.0522 23.8217 25.3206 23.5588 25.3206 23.2344C25.3206 22.91 25.0522 22.6415 24.7222 22.6415ZM23.3518 22.6415C23.0218 22.6415 22.7533 22.91 22.7533 23.2344C22.7533 23.5588 23.0218 23.8217 23.3518 23.8217C23.6874 23.8217 23.9559 23.5588 23.9559 23.2344C23.9559 22.91 23.6874 22.6415 23.3518 22.6415ZM32.8771 23.9783C32.5471 23.9783 32.2731 24.2412 32.2731 24.5712C32.2731 24.8956 32.5471 25.1585 32.8771 25.1585C33.2071 25.1585 33.4756 24.8956 33.4756 24.5712C33.4756 24.2412 33.2071 23.9783 32.8771 23.9783ZM32.8771 25.3319C32.5471 25.3319 32.2731 25.5948 32.2731 25.9192C32.2731 26.2436 32.5471 26.5065 32.8771 26.5065C33.2071 26.5065 33.4756 26.2436 33.4756 25.9192C33.4756 25.5948 33.2071 25.3319 32.8771 25.3319ZM31.5124 25.3319C31.1768 25.3319 30.9083 25.5948 30.9083 25.9192C30.9083 26.2436 31.1768 26.5065 31.5124 26.5065C31.8424 26.5065 32.1109 26.2436 32.1109 25.9192C32.1109 25.5948 31.8424 25.3319 31.5124 25.3319ZM30.142 25.3319C29.812 25.3319 29.5436 25.5948 29.5436 25.9192C29.5436 26.2436 29.812 26.5065 30.142 26.5065C30.4776 26.5065 30.7461 26.2436 30.7461 25.9192C30.7461 25.5948 30.4776 25.3319 30.142 25.3319ZM28.7773 25.3319C28.4473 25.3319 28.1788 25.5948 28.1788 25.9192C28.1788 26.2436 28.4473 26.5065 28.7773 26.5065C29.1073 26.5065 29.3758 26.2436 29.3758 25.9192C29.3758 25.5948 29.1073 25.3319 28.7773 25.3319ZM32.8771 26.6687C32.5471 26.6687 32.2731 26.9315 32.2731 27.256C32.2731 27.5804 32.5471 27.8488 32.8771 27.8488C33.2071 27.8488 33.4756 27.5804 33.4756 27.256C33.4756 26.9315 33.2071 26.6687 32.8771 26.6687ZM27.4125 26.6687C27.0769 26.6687 26.8085 26.9315 26.8085 27.256C26.8085 27.5804 27.0769 27.8488 27.4125 27.8488C27.7425 27.8488 28.011 27.5804 28.011 27.256C28.011 26.9315 27.7425 26.6687 27.4125 26.6687ZM31.5124 27.9999C31.1768 27.9999 30.9083 28.2627 30.9083 28.5927C30.9083 28.9171 31.1768 29.18 31.5124 29.18C31.8424 29.18 32.1109 28.9171 32.1109 28.5927C32.1109 28.2627 31.8424 27.9999 31.5124 27.9999ZM30.142 27.9999C29.812 27.9999 29.5436 28.2627 29.5436 28.5927C29.5436 28.9171 29.812 29.18 30.142 29.18C30.4776 29.18 30.7461 28.9171 30.7461 28.5927C30.7461 28.2627 30.4776 27.9999 30.142 27.9999ZM28.7773 27.9999C28.4473 27.9999 28.1788 28.2627 28.1788 28.5927C28.1788 28.9171 28.4473 29.18 28.7773 29.18C29.1073 29.18 29.3758 28.9171 29.3758 28.5927C29.3758 28.2627 29.1073 27.9999 28.7773 27.9999ZM31.5124 22.6415C31.1768 22.6415 30.9083 22.91 30.9083 23.2344C30.9083 23.5588 31.1768 23.8217 31.5124 23.8217C31.8424 23.8217 32.1109 23.5588 32.1109 23.2344C32.1109 22.91 31.8424 22.6415 31.5124 22.6415ZM30.142 22.6415C29.812 22.6415 29.5436 22.91 29.5436 23.2344C29.5436 23.5588 29.812 23.8217 30.142 23.8217C30.4776 23.8217 30.7461 23.5588 30.7461 23.2344C30.7461 22.91 30.4776 22.6415 30.142 22.6415ZM28.7773 22.6415C28.4473 22.6415 28.1788 22.91 28.1788 23.2344C28.1788 23.5588 28.4473 23.8217 28.7773 23.8217C29.1073 23.8217 29.3758 23.5588 29.3758 23.2344C29.3758 22.91 29.1073 22.6415 28.7773 22.6415ZM41.088 23.9783C40.758 23.9783 40.484 24.2412 40.484 24.5712C40.484 24.8956 40.758 25.1585 41.088 25.1585C41.418 25.1585 41.6865 24.8956 41.6865 24.5712C41.6865 24.2412 41.418 23.9783 41.088 23.9783ZM35.6234 23.9783C35.2878 23.9783 35.0193 24.2412 35.0193 24.5712C35.0193 24.8956 35.2878 25.1585 35.6234 25.1585C35.9534 25.1585 36.2219 24.8956 36.2219 24.5712C36.2219 24.2412 35.9534 23.9783 35.6234 23.9783ZM41.088 25.3319C40.758 25.3319 40.484 25.5948 40.484 25.9192C40.484 26.2436 40.758 26.5065 41.088 26.5065C41.418 26.5065 41.6865 26.2436 41.6865 25.9192C41.6865 25.5948 41.418 25.3319 41.088 25.3319ZM35.6234 25.3319C35.2878 25.3319 35.0193 25.5948 35.0193 25.9192C35.0193 26.2436 35.2878 26.5065 35.6234 26.5065C35.9534 26.5065 36.2219 26.2436 36.2219 25.9192C36.2219 25.5948 35.9534 25.3319 35.6234 25.3319ZM41.088 26.6687C40.758 26.6687 40.484 26.9315 40.484 27.256C40.484 27.5804 40.758 27.8488 41.088 27.8488C41.418 27.8488 41.6865 27.5804 41.6865 27.256C41.6865 26.9315 41.418 26.6687 41.088 26.6687ZM35.6234 26.6687C35.2878 26.6687 35.0193 26.9315 35.0193 27.256C35.0193 27.5804 35.2878 27.8488 35.6234 27.8488C35.9534 27.8488 36.2219 27.5804 36.2219 27.256C36.2219 26.9315 35.9534 26.6687 35.6234 26.6687ZM41.088 27.9999C40.758 27.9999 40.484 28.2627 40.484 28.5927C40.484 28.9171 40.758 29.18 41.088 29.18C41.418 29.18 41.6865 28.9171 41.6865 28.5927C41.6865 28.2627 41.418 27.9999 41.088 27.9999ZM35.6234 27.9999C35.2878 27.9999 35.0193 28.2627 35.0193 28.5927C35.0193 28.9171 35.2878 29.18 35.6234 29.18C35.9534 29.18 36.2219 28.9171 36.2219 28.5927C36.2219 28.2627 35.9534 27.9999 35.6234 27.9999ZM39.7233 22.6415C39.3877 22.6415 39.1192 22.91 39.1192 23.2344C39.1192 23.5588 39.3877 23.8217 39.7233 23.8217C40.0533 23.8217 40.3217 23.5588 40.3217 23.2344C40.3217 22.91 40.0533 22.6415 39.7233 22.6415ZM38.3529 22.6415C38.0229 22.6415 37.7544 22.91 37.7544 23.2344C37.7544 23.5588 38.0229 23.8217 38.3529 23.8217C38.6885 23.8217 38.957 23.5588 38.957 23.2344C38.957 22.91 38.6885 22.6415 38.3529 22.6415ZM36.9882 22.6415C36.6526 22.6415 36.3841 22.91 36.3841 23.2344C36.3841 23.5588 36.6526 23.8217 36.9882 23.8217C37.3182 23.8217 37.5866 23.5588 37.5866 23.2344C37.5866 22.91 37.3182 22.6415 36.9882 22.6415ZM35.6234 22.6415C35.2878 22.6415 35.0193 22.91 35.0193 23.2344C35.0193 23.5588 35.2878 23.8217 35.6234 23.8217C35.9534 23.8217 36.2219 23.5588 36.2219 23.2344C36.2219 22.91 35.9534 22.6415 35.6234 22.6415ZM49.2933 23.9783C48.9577 23.9783 48.6893 24.2412 48.6893 24.5712C48.6893 24.8956 48.9577 25.1585 49.2933 25.1585C49.6233 25.1585 49.8918 24.8956 49.8918 24.5712C49.8918 24.2412 49.6233 23.9783 49.2933 23.9783ZM49.2933 25.3319C48.9577 25.3319 48.6893 25.5948 48.6893 25.9192C48.6893 26.2436 48.9577 26.5065 49.2933 26.5065C49.6233 26.5065 49.8918 26.2436 49.8918 25.9192C49.8918 25.5948 49.6233 25.3319 49.2933 25.3319ZM47.923 25.3319C47.593 25.3319 47.3245 25.5948 47.3245 25.9192C47.3245 26.2436 47.593 26.5065 47.923 26.5065C48.2586 26.5065 48.527 26.2436 48.527 25.9192C48.527 25.5948 48.2586 25.3319 47.923 25.3319ZM46.5582 25.3319C46.2282 25.3319 45.9597 25.5948 45.9597 25.9192C45.9597 26.2436 46.2282 26.5065 46.5582 26.5065C46.8882 26.5065 47.1623 26.2436 47.1623 25.9192C47.1623 25.5948 46.8882 25.3319 46.5582 25.3319ZM45.1935 25.3319C44.8579 25.3319 44.5894 25.5948 44.5894 25.9192C44.5894 26.2436 44.8579 26.5065 45.1935 26.5065C45.5235 26.5065 45.7919 26.2436 45.7919 25.9192C45.7919 25.5948 45.5235 25.3319 45.1935 25.3319ZM49.2933 26.6687C48.9577 26.6687 48.6893 26.9315 48.6893 27.256C48.6893 27.5804 48.9577 27.8488 49.2933 27.8488C49.6233 27.8488 49.8918 27.5804 49.8918 27.256C49.8918 26.9315 49.6233 26.6687 49.2933 26.6687ZM43.8231 26.6687C43.4931 26.6687 43.2246 26.9315 43.2246 27.256C43.2246 27.5804 43.4931 27.8488 43.8231 27.8488C44.1587 27.8488 44.4272 27.5804 44.4272 27.256C44.4272 26.9315 44.1587 26.6687 43.8231 26.6687ZM47.923 27.9999C47.593 27.9999 47.3245 28.2627 47.3245 28.5927C47.3245 28.9171 47.593 29.18 47.923 29.18C48.2586 29.18 48.527 28.9171 48.527 28.5927C48.527 28.2627 48.2586 27.9999 47.923 27.9999ZM46.5582 27.9999C46.2282 27.9999 45.9597 28.2627 45.9597 28.5927C45.9597 28.9171 46.2282 29.18 46.5582 29.18C46.8882 29.18 47.1623 28.9171 47.1623 28.5927C47.1623 28.2627 46.8882 27.9999 46.5582 27.9999ZM45.1935 27.9999C44.8579 27.9999 44.5894 28.2627 44.5894 28.5927C44.5894 28.9171 44.8579 29.18 45.1935 29.18C45.5235 29.18 45.7919 28.9171 45.7919 28.5927C45.7919 28.2627 45.5235 27.9999 45.1935 27.9999ZM47.923 22.6415C47.593 22.6415 47.3245 22.91 47.3245 23.2344C47.3245 23.5588 47.593 23.8217 47.923 23.8217C48.2586 23.8217 48.527 23.5588 48.527 23.2344C48.527 22.91 48.2586 22.6415 47.923 22.6415ZM46.5582 22.6415C46.2282 22.6415 45.9597 22.91 45.9597 23.2344C45.9597 23.5588 46.2282 23.8217 46.5582 23.8217C46.8882 23.8217 47.1623 23.5588 47.1623 23.2344C47.1623 22.91 46.8882 22.6415 46.5582 22.6415ZM45.1935 22.6415C44.8579 22.6415 44.5894 22.91 44.5894 23.2344C44.5894 23.5588 44.8579 23.8217 45.1935 23.8217C45.5235 23.8217 45.7919 23.5588 45.7919 23.2344C45.7919 22.91 45.5235 22.6415 45.1935 22.6415ZM4.29002 21.8752C1.91849 21.8752 0 23.7602 0 26.087C0 28.4082 1.91849 30.2931 4.29002 30.2931C6.66156 30.2931 8.58005 28.4082 8.58005 26.087C8.58005 23.7602 6.66156 21.8752 4.29002 21.8752Z" fill="#FEFEFE"/>
</symbol><symbol id="logo2" viewBox="0 0 154 40">
<path fill-rule="evenodd" clip-rule="evenodd" d="M25.5922 21.2715C25.5711 22.2901 24.7 23.105 23.6252 23.105C22.5574 23.105 21.6863 22.2901 21.6653 21.2715V3.28767C21.6653 2.25501 22.5434 1.41904 23.6252 1.41904C24.7141 1.41904 25.5922 2.25501 25.5922 3.28767V21.2715ZM57.6751 19.3607H66.0348H66.0699C67.1517 19.3607 68.0299 20.2037 68.0299 21.2364C68.0299 22.2691 67.1517 23.105 66.0699 23.105H55.7292H55.7151C54.6403 23.105 53.7692 22.2901 53.7482 21.2715V3.28767C53.7482 2.25501 54.6263 1.41904 55.7151 1.41904C56.797 1.41904 57.6751 2.25501 57.6751 3.28767V19.3607ZM34.1697 16.9301C33.4039 16.9301 32.2097 17.9838 32.2097 18.8058C32.2097 19.6207 32.5047 19.9438 32.9684 20.281V20.288L33.713 20.7938L34.1275 21.0467L34.563 21.2996L35.0056 21.5455L35.4693 21.7773L35.9399 22.0021L36.4247 22.2129L36.9164 22.4025L37.4222 22.5782L37.942 22.7327L38.4689 22.8662L39.0028 22.9786L39.5437 23.0629L40.0917 23.112L40.6326 23.1331L41.2508 23.1261L41.876 23.091L42.5153 23.0348L43.1686 22.9434L43.836 22.81L44.5104 22.6273L45.1918 22.3885L45.8591 22.0653L46.5054 21.6719L47.1096 21.1802L47.6575 20.5971L48.1282 19.9157L48.5005 19.164L48.7675 18.3351L48.929 17.4499L49.0274 16.5789L48.9852 15.8342L48.9361 15.0193L48.7815 14.2325L48.5286 13.5019L48.1774 12.8205L47.7489 12.2093L47.2571 11.6684L46.7162 11.1907L46.1472 10.7833L45.5501 10.418L44.9389 10.1089L44.3137 9.82789L43.6884 9.58202L43.0562 9.35722L42.424 9.15349L41.7917 8.96382L41.1735 8.7882L39.9863 8.451L39.4103 8.2824L38.8764 8.12083L38.3706 7.95223L37.9069 7.78363L37.4924 7.61503L37.1342 7.43941L36.8321 7.27081L36.5933 7.10924L36.4176 6.96171L36.3052 6.82824L36.228 6.71584L36.1788 6.61047L36.1437 6.47699L36.1296 6.2803L36.1437 5.92202L36.1999 5.6059L36.2771 5.353L36.3825 5.12821L36.509 4.93853L36.6495 4.76291L36.8321 4.60134L37.0429 4.44679L37.2957 4.29926L37.5838 4.16579L37.9069 4.05339L38.2652 3.94802L38.6445 3.87074L39.052 3.80752L39.4665 3.76537L39.895 3.74429H40.2251L40.5694 3.75834L40.9136 3.77942L41.2648 3.82157L41.6161 3.87074L41.9673 3.92694L42.3116 4.00422L42.6558 4.08149L42.993 4.17281L43.3231 4.27819L43.6393 4.39059L43.9484 4.51001L44.2434 4.62943L44.5244 4.76291L44.7843 4.89638C45.0653 5.04391 45.3955 5.13523 45.7397 5.13523C46.8216 5.13523 47.6997 4.29224 47.6997 3.25957C47.6997 2.5641 47.3063 1.95996 46.7232 1.63681L46.3228 1.42606L45.9083 1.23639L45.4798 1.05374L45.0443 0.885142L44.5947 0.737619L44.1451 0.590095L43.6814 0.463646L43.2107 0.351247L42.7331 0.252898L42.2483 0.168599L41.7636 0.105374L41.2789 0.0491746L40.7801 0.0140499L40.2884 0H39.7896L39.1714 0.0280998L38.5392 0.0913242L37.9139 0.182648L37.2817 0.323147L36.6495 0.498771L36.0313 0.723569L35.4271 0.997541L34.837 1.34176L34.2821 1.74218L33.7622 2.21286L33.2986 2.7608L32.8981 3.37197L32.589 4.04636L32.3642 4.76993L32.2308 5.53565L32.1886 6.35054L32.2589 7.08816L32.4415 7.81173L32.7506 8.48613L33.144 9.08325L33.6147 9.59607L34.1345 10.0386L34.6825 10.411L35.2515 10.7341L35.8346 11.0081L36.4247 11.254L37.0218 11.4717L37.6329 11.6754L38.2441 11.8581L38.8553 12.0407L39.4594 12.2093L40.0565 12.3779L40.6326 12.5465L41.2016 12.7151L41.7425 12.8908L42.2554 13.0734L42.7331 13.2561L43.1686 13.4528L43.562 13.6565L43.9062 13.8602L44.1942 14.071L44.4331 14.2817L44.6228 14.4924L44.7703 14.7032L44.8827 14.921L44.974 15.1739L45.0302 15.4689L45.0513 15.8342L45.1075 16.3611L45.0232 17.0285L44.9389 17.464L44.8335 17.8012L44.693 18.0752L44.5455 18.3L44.3628 18.4896L44.1591 18.6582L43.9132 18.8058L43.6182 18.9463L43.281 19.0657L42.9016 19.1711L42.4872 19.2554L42.0516 19.3116L41.588 19.3537L41.1243 19.3748L40.6747 19.3818L40.3586 19.3748L40.0495 19.3467L39.7194 19.2975L39.3892 19.2273L39.045 19.1359L38.6937 19.0306L38.3354 18.9111L37.9772 18.7706L37.6189 18.6091L37.2606 18.4475L36.9094 18.2648L36.5652 18.0822L36.228 17.8855L35.9048 17.6818L35.3569 17.3094C35.0267 17.0706 34.9354 16.9301 34.1697 16.9301ZM77.7453 1.60169C78.0053 1.48226 78.2933 1.41904 78.5954 1.41904C79.6772 1.41904 80.5553 2.25501 80.5553 3.28767C80.5553 4.10959 80.0074 4.80506 79.2487 5.05796C77.8999 5.73235 76.9726 7.08114 76.9726 8.62663V15.9396C76.9726 17.4991 77.928 18.869 79.2979 19.5364C80.0355 19.8033 80.752 20.7657 80.4781 21.7071C80.1971 22.6484 79.2908 23.1542 78.5954 23.1542C77.8999 23.1542 78.0053 23.091 77.7453 22.9715V22.9786C74.9775 21.7281 73.0457 19.0376 73.0457 15.9396V8.62663C73.0457 5.52863 74.9775 2.83808 77.7453 1.58764V1.60169ZM84.8967 22.8662C87.5311 21.5736 89.3505 18.9463 89.3505 15.9396V8.62663C89.3505 5.61293 87.5241 2.97857 84.8757 1.69301L84.8686 1.70004C84.5666 1.51739 84.2153 1.41904 83.836 1.41904C82.7541 1.41904 81.869 2.25501 81.869 3.28767C81.869 4.03231 82.3256 4.67158 82.9789 4.97366H82.9719C84.419 5.61995 85.4236 7.01791 85.4236 8.62663V15.9396C85.4236 17.5483 84.412 18.9463 82.9719 19.5926L82.9789 19.5996C82.3256 19.9017 81.7917 20.4988 81.9533 21.4682C82.1219 22.4306 82.7401 22.8943 83.4215 22.9996C84.1029 23.105 84.5876 23.0488 84.8967 22.8662ZM98.6937 21.2715C98.6726 22.2901 97.8016 23.105 96.7267 23.105C95.6589 23.105 94.7878 22.2901 94.7668 21.2715V3.3228V3.28767C94.7668 2.25501 95.6449 1.41904 96.7267 1.41904C97.8156 1.41904 98.6937 2.25501 98.6937 3.28767V3.3228V21.2715ZM140.878 21.2715C140.857 22.2901 139.986 23.105 138.911 23.105C137.844 23.105 136.973 22.2901 136.952 21.2715V3.28767C136.952 2.25501 137.83 1.41904 138.911 1.41904C140 1.41904 140.878 2.25501 140.878 3.28767V21.2715ZM110.685 20.4707C111.121 21.398 110.692 22.4939 109.73 22.9294C108.76 23.3649 107.601 22.9786 107.131 22.0653L107.117 22.0302L102.733 13.1577H101.925C100.864 13.1296 100.014 12.3007 100.014 11.2821C100.014 10.2634 100.864 9.44152 101.925 9.41342V9.40639H104.967C106.175 9.40639 107.173 8.46505 107.173 7.30594C107.173 6.14682 106.175 5.19845 104.967 5.19845H101.925C100.864 5.17035 100.014 4.34141 100.014 3.3228C100.014 2.30418 100.864 1.47524 101.925 1.45416V1.44714H104.967C108.339 1.44714 111.1 4.08149 111.1 7.30594C111.1 9.87004 109.344 12.0688 106.92 12.8486L110.664 20.4355L110.685 20.4707ZM120.619 26.3927C120.633 25.5919 121.321 24.9456 122.164 24.9456C123.014 24.9456 123.702 25.5919 123.724 26.3927V32.3007C123.731 32.9118 123.33 33.4387 122.775 33.6635H122.768L122.74 33.6776H122.733L122.698 33.6916L122.663 33.6986L122.628 33.7127C122.48 33.7548 122.326 33.7829 122.164 33.7829H110.215C109.379 33.7619 108.697 33.1085 108.697 32.3007C108.697 31.4928 109.379 30.8325 110.215 30.8184H120.612V26.3927H120.619ZM82.0235 26.3927C82.0095 25.5919 81.321 24.9456 80.4781 24.9456C79.628 24.9456 78.9396 25.5919 78.9255 26.3927V32.3007C78.9115 32.8978 79.2908 33.4176 79.8318 33.6495H79.8388L79.8669 33.6635H79.8739L79.909 33.6776L79.9371 33.6916H79.9442L79.9793 33.6986C80.1338 33.7548 80.3024 33.7829 80.4781 33.7829H92.4275C93.2705 33.7619 93.9449 33.1085 93.9449 32.3007C93.9449 31.4928 93.2705 30.8325 92.4275 30.8184H82.0306V26.3927H82.0235ZM144.054 5.19845H147.096C148.269 5.19845 149.231 6.07657 149.301 7.17949V7.30594V17.2392C149.301 18.3983 148.304 19.3467 147.096 19.3467H144.054C143 19.3748 142.15 20.2037 142.15 21.2153C142.15 22.2339 143 23.0629 144.054 23.091H147.096C150.418 23.091 153.151 20.5269 153.228 17.3727V17.3235V6.99684V6.96874C153.228 6.81419 153.207 6.65964 153.172 6.51914C152.772 3.66702 150.187 1.44714 147.096 1.44714H144.054V1.45416C143 1.48226 142.15 2.30418 142.15 3.3228C142.15 4.34141 143 5.17035 144.054 5.19845ZM119.923 1.60169C120.183 1.48226 120.464 1.41904 120.773 1.41904C121.855 1.41904 122.733 2.25501 122.733 3.28767C122.733 4.10959 122.192 4.80506 121.426 5.05796C120.078 5.73235 119.157 7.08114 119.157 8.62663V15.9396C119.157 17.4991 120.106 18.869 121.483 19.5364C122.213 19.8033 122.733 20.3653 122.733 21.2856C122.733 22.1988 121.469 23.1542 120.773 23.1542C120.078 23.1542 120.183 23.091 119.923 22.9715V22.9786C117.155 21.7281 115.223 19.0376 115.223 15.9396V8.62663C115.223 5.52863 117.155 2.83808 119.923 1.58764V1.60169ZM127.067 22.8662C129.709 21.5736 131.528 18.9463 131.528 15.9396V8.62663C131.528 5.61293 129.702 2.97857 127.053 1.69301L127.046 1.70004C126.751 1.51739 126.393 1.41904 126.014 1.41904C124.932 1.41904 124.047 2.25501 124.047 3.28767C124.047 4.03231 124.503 4.67158 125.157 4.97366H125.15C126.597 5.61995 127.601 7.01791 127.601 8.62663V15.9396C127.601 17.5483 126.59 18.9463 125.15 19.5926L125.157 19.5996C124.503 19.9017 124.047 20.3934 124.047 21.2856C124.047 22.1707 125.276 23.1542 126.014 23.1542C126.751 23.1542 126.765 23.0488 127.067 22.8662ZM106.365 37.3727H97.654V35.5321C98.3916 34.9701 99.052 34.4433 99.6421 33.9515C100.225 33.4598 100.745 32.9891 101.188 32.5395C101.771 31.9564 102.192 31.4436 102.445 31.0081C102.712 30.5655 102.838 30.1159 102.838 29.6452C102.838 29.1184 102.677 28.7179 102.347 28.437C102.017 28.156 101.553 28.0155 100.963 28.0155C100.668 28.0155 100.38 28.0506 100.113 28.1208C99.8388 28.1911 99.5718 28.2824 99.2908 28.3948C99.0239 28.5142 98.7921 28.6336 98.6024 28.7531C98.4127 28.8725 98.2652 28.9638 98.1668 29.027H97.942V26.5543C98.2722 26.4067 98.7991 26.2452 99.5086 26.0906C100.218 25.929 100.907 25.8518 101.56 25.8518C102.965 25.8518 104.033 26.1468 104.756 26.7439C105.487 27.3411 105.845 28.1841 105.845 29.2659C105.845 29.9333 105.684 30.5866 105.353 31.2329C105.023 31.8721 104.475 32.5536 103.717 33.2912C103.239 33.7408 102.775 34.1412 102.319 34.4925C101.869 34.8437 101.539 35.0966 101.342 35.2441H106.365V37.3727ZM4.31366 21.2715C4.29258 22.2901 3.42149 23.105 2.3537 23.105C1.27889 23.105 0.407794 22.2901 0.386719 21.2715V3.28767C0.386719 2.25501 1.27186 1.41904 2.3537 1.41904C3.43554 1.41904 4.31366 2.25501 4.31366 3.28767V3.3228V9.93326L14.1556 1.88971L14.1767 1.86863C14.9986 1.19424 16.242 1.28556 16.9445 2.06533C17.654 2.85915 17.5557 4.03934 16.7338 4.71373L16.7057 4.73481L8.86582 11.1486L16.804 19.993L16.8251 20.014C17.5346 20.8008 17.4362 21.981 16.6143 22.6554C15.7924 23.3298 14.549 23.2385 13.8465 22.4517L13.8254 22.4306L5.88022 13.5933L4.31366 14.8718V21.2715Z" fill="#0061A8"/>
<path d="M24.222 34.9702C23.8075 34.9702 23.4703 34.64 23.4703 34.2326C23.4703 33.8252 23.8075 33.488 24.222 33.488C24.6435 33.488 24.9807 33.8252 24.9807 34.2326C24.9807 34.64 24.6435 34.9702 24.222 34.9702ZM17.3586 34.9702C16.9442 34.9702 16.607 34.64 16.607 34.2326C16.607 33.8252 16.9442 33.488 17.3586 33.488C17.7731 33.488 18.1173 33.8252 18.1173 34.2326C18.1173 34.64 17.7731 34.9702 17.3586 34.9702ZM24.222 33.2772C23.8075 33.2772 23.4703 32.94 23.4703 32.5326C23.4703 32.1251 23.8075 31.7949 24.222 31.7949C24.6435 31.7949 24.9807 32.1251 24.9807 32.5326C24.9807 32.94 24.6435 33.2772 24.222 33.2772ZM17.3586 33.2772C16.9442 33.2772 16.607 32.94 16.607 32.5326C16.607 32.1251 16.9442 31.7949 17.3586 31.7949C17.7731 31.7949 18.1173 32.1251 18.1173 32.5326C18.1173 32.94 17.7731 33.2772 17.3586 33.2772ZM24.222 31.5982C23.8075 31.5982 23.4703 31.2681 23.4703 30.8536C23.4703 30.4462 23.8075 30.116 24.222 30.116C24.6435 30.116 24.9807 30.4462 24.9807 30.8536C24.9807 31.2681 24.6435 31.5982 24.222 31.5982ZM17.3586 31.5982C16.9442 31.5982 16.607 31.2681 16.607 30.8536C16.607 30.4462 16.9442 30.116 17.3586 30.116C17.7731 30.116 18.1173 30.4462 18.1173 30.8536C18.1173 31.2681 17.7731 31.5982 17.3586 31.5982ZM22.5079 29.9193C22.0934 29.9193 21.7562 29.5891 21.7562 29.1817C21.7562 28.7742 22.0934 28.437 22.5079 28.437C22.9294 28.437 23.2666 28.7742 23.2666 29.1817C23.2666 29.5891 22.9294 29.9193 22.5079 29.9193ZM20.7938 29.9193C20.3793 29.9193 20.0351 29.5891 20.0351 29.1817C20.0351 28.7742 20.3793 28.437 20.7938 28.437C21.2083 28.437 21.5455 28.7742 21.5455 29.1817C21.5455 29.5891 21.2083 29.9193 20.7938 29.9193ZM19.0797 29.9193C18.6582 29.9193 18.321 29.5891 18.321 29.1817C18.321 28.7742 18.6582 28.437 19.0797 28.437C19.4942 28.437 19.8314 28.7742 19.8314 29.1817C19.8314 29.5891 19.4942 29.9193 19.0797 29.9193ZM22.5079 36.6492C22.0934 36.6492 21.7562 36.319 21.7562 35.9116C21.7562 35.4971 22.0934 35.1669 22.5079 35.1669C22.9294 35.1669 23.2666 35.4971 23.2666 35.9116C23.2666 36.319 22.9294 36.6492 22.5079 36.6492ZM20.7938 36.6492C20.3793 36.6492 20.0351 36.319 20.0351 35.9116C20.0351 35.4971 20.3793 35.1669 20.7938 35.1669C21.2083 35.1669 21.5455 35.4971 21.5455 35.9116C21.5455 36.319 21.2083 36.6492 20.7938 36.6492ZM19.0797 36.6492C18.6582 36.6492 18.321 36.319 18.321 35.9116C18.321 35.4971 18.6582 35.1669 19.0797 35.1669C19.4942 35.1669 19.8314 35.4971 19.8314 35.9116C19.8314 36.319 19.4942 36.6492 19.0797 36.6492ZM17.3586 36.6492C16.9442 36.6492 16.607 36.319 16.607 35.9116C16.607 35.4971 16.9442 35.1669 17.3586 35.1669C17.7731 35.1669 18.1173 35.4971 18.1173 35.9116C18.1173 36.319 17.7731 36.6492 17.3586 36.6492ZM17.3586 38.3211C16.9442 38.3211 16.607 37.9909 16.607 37.5835C16.607 37.1761 16.9442 36.8459 17.3586 36.8459C17.7731 36.8459 18.1173 37.1761 18.1173 37.5835C18.1173 37.9909 17.7731 38.3211 17.3586 38.3211ZM17.3586 40.0001C16.9442 40.0001 16.607 39.6699 16.607 39.2625C16.607 38.848 16.9442 38.5178 17.3586 38.5178C17.7731 38.5178 18.1173 38.848 18.1173 39.2625C18.1173 39.6699 17.7731 40.0001 17.3586 40.0001ZM27.615 30.116C27.2006 30.116 26.8563 30.4462 26.8563 30.8606C26.8563 31.2681 27.2006 31.5982 27.615 31.5982C28.0295 31.5982 28.3667 31.2681 28.3667 30.8606C28.3667 30.4462 28.0295 30.116 27.615 30.116ZM27.615 31.816C27.2006 31.816 26.8563 32.1462 26.8563 32.5536C26.8563 32.9611 27.2006 33.2913 27.615 33.2913C28.0295 33.2913 28.3667 32.9611 28.3667 32.5536C28.3667 32.1462 28.0295 31.816 27.615 31.816ZM27.615 33.495C27.2006 33.495 26.8563 33.8252 26.8563 34.2326C26.8563 34.64 27.2006 34.9772 27.615 34.9772C28.0295 34.9772 28.3667 34.64 28.3667 34.2326C28.3667 33.8252 28.0295 33.495 27.615 33.495ZM27.615 35.1669C27.2006 35.1669 26.8563 35.4971 26.8563 35.9116C26.8563 36.319 27.2006 36.6492 27.615 36.6492C28.0295 36.6492 28.3667 36.319 28.3667 35.9116C28.3667 35.4971 28.0295 35.1669 27.615 35.1669ZM31.0502 28.437C30.6287 28.437 30.2915 28.7742 30.2915 29.1817C30.2915 29.5891 30.6287 29.9193 31.0502 29.9193C31.4647 29.9193 31.8019 29.5891 31.8019 29.1817C31.8019 28.7742 31.4647 28.437 31.0502 28.437ZM29.3291 28.437C28.9146 28.437 28.5774 28.7742 28.5774 29.1817C28.5774 29.5891 28.9146 29.9193 29.3291 29.9193C29.7506 29.9193 30.0878 29.5891 30.0878 29.1817C30.0878 28.7742 29.7506 28.437 29.3291 28.437ZM41.2926 30.116C40.8781 30.116 40.5339 30.4462 40.5339 30.8606C40.5339 31.2681 40.8781 31.5982 41.2926 31.5982C41.7071 31.5982 42.0443 31.2681 42.0443 30.8606C42.0443 30.4462 41.7071 30.116 41.2926 30.116ZM41.2926 31.816C40.8781 31.816 40.5339 32.1462 40.5339 32.5536C40.5339 32.9611 40.8781 33.2913 41.2926 33.2913C41.7071 33.2913 42.0443 32.9611 42.0443 32.5536C42.0443 32.1462 41.7071 31.816 41.2926 31.816ZM39.5785 31.816C39.157 31.816 38.8198 32.1462 38.8198 32.5536C38.8198 32.9611 39.157 33.2913 39.5785 33.2913C39.993 33.2913 40.3302 32.9611 40.3302 32.5536C40.3302 32.1462 39.993 31.816 39.5785 31.816ZM37.8574 31.816C37.4429 31.816 37.1057 32.1462 37.1057 32.5536C37.1057 32.9611 37.4429 33.2913 37.8574 33.2913C38.2789 33.2913 38.6161 32.9611 38.6161 32.5536C38.6161 32.1462 38.2789 31.816 37.8574 31.816ZM36.1433 31.816C35.7288 31.816 35.3916 32.1462 35.3916 32.5536C35.3916 32.9611 35.7288 33.2913 36.1433 33.2913C36.5578 33.2913 36.895 32.9611 36.895 32.5536C36.895 32.1462 36.5578 31.816 36.1433 31.816ZM41.2926 33.495C40.8781 33.495 40.5339 33.8252 40.5339 34.2326C40.5339 34.64 40.8781 34.9772 41.2926 34.9772C41.7071 34.9772 42.0443 34.64 42.0443 34.2326C42.0443 33.8252 41.7071 33.495 41.2926 33.495ZM34.4292 33.495C34.0077 33.495 33.6705 33.8252 33.6705 34.2326C33.6705 34.64 34.0077 34.9772 34.4292 34.9772C34.8437 34.9772 35.1809 34.64 35.1809 34.2326C35.1809 33.8252 34.8437 33.495 34.4292 33.495ZM39.5785 35.1669C39.157 35.1669 38.8198 35.4971 38.8198 35.9116C38.8198 36.319 39.157 36.6492 39.5785 36.6492C39.993 36.6492 40.3302 36.319 40.3302 35.9116C40.3302 35.4971 39.993 35.1669 39.5785 35.1669ZM37.8574 35.1669C37.4429 35.1669 37.1057 35.4971 37.1057 35.9116C37.1057 36.319 37.4429 36.6492 37.8574 36.6492C38.2789 36.6492 38.6161 36.319 38.6161 35.9116C38.6161 35.4971 38.2789 35.1669 37.8574 35.1669ZM36.1433 35.1669C35.7288 35.1669 35.3916 35.4971 35.3916 35.9116C35.3916 36.319 35.7288 36.6492 36.1433 36.6492C36.5578 36.6492 36.895 36.319 36.895 35.9116C36.895 35.4971 36.5578 35.1669 36.1433 35.1669ZM39.5785 28.437C39.157 28.437 38.8198 28.7742 38.8198 29.1817C38.8198 29.5891 39.157 29.9193 39.5785 29.9193C39.993 29.9193 40.3302 29.5891 40.3302 29.1817C40.3302 28.7742 39.993 28.437 39.5785 28.437ZM37.8574 28.437C37.4429 28.437 37.1057 28.7742 37.1057 29.1817C37.1057 29.5891 37.4429 29.9193 37.8574 29.9193C38.2789 29.9193 38.6161 29.5891 38.6161 29.1817C38.6161 28.7742 38.2789 28.437 37.8574 28.437ZM36.1433 28.437C35.7288 28.437 35.3916 28.7742 35.3916 29.1817C35.3916 29.5891 35.7288 29.9193 36.1433 29.9193C36.5578 29.9193 36.895 29.5891 36.895 29.1817C36.895 28.7742 36.5578 28.437 36.1433 28.437ZM51.6052 30.116C51.1907 30.116 50.8465 30.4462 50.8465 30.8606C50.8465 31.2681 51.1907 31.5982 51.6052 31.5982C52.0197 31.5982 52.3569 31.2681 52.3569 30.8606C52.3569 30.4462 52.0197 30.116 51.6052 30.116ZM44.7418 30.116C44.3203 30.116 43.9831 30.4462 43.9831 30.8606C43.9831 31.2681 44.3203 31.5982 44.7418 31.5982C45.1563 31.5982 45.4935 31.2681 45.4935 30.8606C45.4935 30.4462 45.1563 30.116 44.7418 30.116ZM51.6052 31.816C51.1907 31.816 50.8465 32.1462 50.8465 32.5536C50.8465 32.9611 51.1907 33.2913 51.6052 33.2913C52.0197 33.2913 52.3569 32.9611 52.3569 32.5536C52.3569 32.1462 52.0197 31.816 51.6052 31.816ZM44.7418 31.816C44.3203 31.816 43.9831 32.1462 43.9831 32.5536C43.9831 32.9611 44.3203 33.2913 44.7418 33.2913C45.1563 33.2913 45.4935 32.9611 45.4935 32.5536C45.4935 32.1462 45.1563 31.816 44.7418 31.816ZM51.6052 33.495C51.1907 33.495 50.8465 33.8252 50.8465 34.2326C50.8465 34.64 51.1907 34.9772 51.6052 34.9772C52.0197 34.9772 52.3569 34.64 52.3569 34.2326C52.3569 33.8252 52.0197 33.495 51.6052 33.495ZM44.7418 33.495C44.3203 33.495 43.9831 33.8252 43.9831 34.2326C43.9831 34.64 44.3203 34.9772 44.7418 34.9772C45.1563 34.9772 45.4935 34.64 45.4935 34.2326C45.4935 33.8252 45.1563 33.495 44.7418 33.495ZM51.6052 35.1669C51.1907 35.1669 50.8465 35.4971 50.8465 35.9116C50.8465 36.319 51.1907 36.6492 51.6052 36.6492C52.0197 36.6492 52.3569 36.319 52.3569 35.9116C52.3569 35.4971 52.0197 35.1669 51.6052 35.1669ZM44.7418 35.1669C44.3203 35.1669 43.9831 35.4971 43.9831 35.9116C43.9831 36.319 44.3203 36.6492 44.7418 36.6492C45.1563 36.6492 45.4935 36.319 45.4935 35.9116C45.4935 35.4971 45.1563 35.1669 44.7418 35.1669ZM49.8911 28.437C49.4696 28.437 49.1324 28.7742 49.1324 29.1817C49.1324 29.5891 49.4696 29.9193 49.8911 29.9193C50.3056 29.9193 50.6428 29.5891 50.6428 29.1817C50.6428 28.7742 50.3056 28.437 49.8911 28.437ZM48.17 28.437C47.7555 28.437 47.4183 28.7742 47.4183 29.1817C47.4183 29.5891 47.7555 29.9193 48.17 29.9193C48.5915 29.9193 48.9287 29.5891 48.9287 29.1817C48.9287 28.7742 48.5915 28.437 48.17 28.437ZM46.4559 28.437C46.0344 28.437 45.6972 28.7742 45.6972 29.1817C45.6972 29.5891 46.0344 29.9193 46.4559 29.9193C46.8704 29.9193 47.2076 29.5891 47.2076 29.1817C47.2076 28.7742 46.8704 28.437 46.4559 28.437ZM44.7418 28.437C44.3203 28.437 43.9831 28.7742 43.9831 29.1817C43.9831 29.5891 44.3203 29.9193 44.7418 29.9193C45.1563 29.9193 45.4935 29.5891 45.4935 29.1817C45.4935 28.7742 45.1563 28.437 44.7418 28.437ZM61.9108 30.116C61.4893 30.116 61.1521 30.4462 61.1521 30.8606C61.1521 31.2681 61.4893 31.5982 61.9108 31.5982C62.3253 31.5982 62.6625 31.2681 62.6625 30.8606C62.6625 30.4462 62.3253 30.116 61.9108 30.116ZM61.9108 31.816C61.4893 31.816 61.1521 32.1462 61.1521 32.5536C61.1521 32.9611 61.4893 33.2913 61.9108 33.2913C62.3253 33.2913 62.6625 32.9611 62.6625 32.5536C62.6625 32.1462 62.3253 31.816 61.9108 31.816ZM60.1897 31.816C59.7752 31.816 59.438 32.1462 59.438 32.5536C59.438 32.9611 59.7752 33.2913 60.1897 33.2913C60.6112 33.2913 60.9484 32.9611 60.9484 32.5536C60.9484 32.1462 60.6112 31.816 60.1897 31.816ZM58.4756 31.816C58.0611 31.816 57.7239 32.1462 57.7239 32.5536C57.7239 32.9611 58.0611 33.2913 58.4756 33.2913C58.8901 33.2913 59.2343 32.9611 59.2343 32.5536C59.2343 32.1462 58.8901 31.816 58.4756 31.816ZM56.7615 31.816C56.34 31.816 56.0028 32.1462 56.0028 32.5536C56.0028 32.9611 56.34 33.2913 56.7615 33.2913C57.176 33.2913 57.5132 32.9611 57.5132 32.5536C57.5132 32.1462 57.176 31.816 56.7615 31.816ZM61.9108 33.495C61.4893 33.495 61.1521 33.8252 61.1521 34.2326C61.1521 34.64 61.4893 34.9772 61.9108 34.9772C62.3253 34.9772 62.6625 34.64 62.6625 34.2326C62.6625 33.8252 62.3253 33.495 61.9108 33.495ZM55.0404 33.495C54.6259 33.495 54.2887 33.8252 54.2887 34.2326C54.2887 34.64 54.6259 34.9772 55.0404 34.9772C55.4619 34.9772 55.7991 34.64 55.7991 34.2326C55.7991 33.8252 55.4619 33.495 55.0404 33.495ZM60.1897 35.1669C59.7752 35.1669 59.438 35.4971 59.438 35.9116C59.438 36.319 59.7752 36.6492 60.1897 36.6492C60.6112 36.6492 60.9484 36.319 60.9484 35.9116C60.9484 35.4971 60.6112 35.1669 60.1897 35.1669ZM58.4756 35.1669C58.0611 35.1669 57.7239 35.4971 57.7239 35.9116C57.7239 36.319 58.0611 36.6492 58.4756 36.6492C58.8901 36.6492 59.2343 36.319 59.2343 35.9116C59.2343 35.4971 58.8901 35.1669 58.4756 35.1669ZM56.7615 35.1669C56.34 35.1669 56.0028 35.4971 56.0028 35.9116C56.0028 36.319 56.34 36.6492 56.7615 36.6492C57.176 36.6492 57.5132 36.319 57.5132 35.9116C57.5132 35.4971 57.176 35.1669 56.7615 35.1669ZM60.1897 28.437C59.7752 28.437 59.438 28.7742 59.438 29.1817C59.438 29.5891 59.7752 29.9193 60.1897 29.9193C60.6112 29.9193 60.9484 29.5891 60.9484 29.1817C60.9484 28.7742 60.6112 28.437 60.1897 28.437ZM58.4756 28.437C58.0611 28.437 57.7239 28.7742 57.7239 29.1817C57.7239 29.5891 58.0611 29.9193 58.4756 29.9193C58.8901 29.9193 59.2343 29.5891 59.2343 29.1817C59.2343 28.7742 58.8901 28.437 58.4756 28.437ZM56.7615 28.437C56.34 28.437 56.0028 28.7742 56.0028 29.1817C56.0028 29.5891 56.34 29.9193 56.7615 29.9193C57.176 29.9193 57.5132 29.5891 57.5132 29.1817C57.5132 28.7742 57.176 28.437 56.7615 28.437ZM5.38813 27.4746C2.40955 27.4746 0 29.842 0 32.7644C0 35.6797 2.40955 38.0471 5.38813 38.0471C8.3667 38.0471 10.7763 35.6797 10.7763 32.7644C10.7763 29.842 8.3667 27.4746 5.38813 27.4746Z" fill="#0061A8"/>
</symbol><symbol id="mail" viewBox="0 0 24 24">
<path d="M1 13H8V15H1V13ZM3 16H9V18H3V16ZM6 19H10V21H6V19Z" fill="#1F394B"/>
<path d="M19 5H5C3.897 5 3 5.897 3 7V12H5V9L11.4 13.8C11.5732 13.9297 11.7837 13.9998 12 13.9998C12.2163 13.9998 12.4268 13.9297 12.6 13.8L19 9V18H11V20H19C20.103 20 21 19.103 21 18V7C21 5.897 20.103 5 19 5ZM12 11.75L5.666 7H18.334L12 11.75Z" fill="black"/>
</symbol><symbol id="phone" viewBox="0 0 24 24">
<path d="M17.7073 12.293C17.6145 12.2001 17.5043 12.1263 17.383 12.076C17.2617 12.0257 17.1317 11.9998 17.0003 11.9998C16.869 11.9998 16.739 12.0257 16.6176 12.076C16.4963 12.1263 16.3861 12.2001 16.2933 12.293L14.6993 13.887C13.9603 13.667 12.5813 13.167 11.7073 12.293C10.8333 11.419 10.3333 10.04 10.1133 9.30102L11.7073 7.70702C11.8003 7.61423 11.874 7.50403 11.9243 7.38271C11.9746 7.2614 12.0005 7.13135 12.0005 7.00002C12.0005 6.86868 11.9746 6.73864 11.9243 6.61732C11.874 6.49601 11.8003 6.38581 11.7073 6.29302L7.70733 2.29302C7.61455 2.20007 7.50434 2.12633 7.38303 2.07602C7.26171 2.02571 7.13167 1.99982 7.00033 1.99982C6.869 1.99982 6.73896 2.02571 6.61764 2.07602C6.49633 2.12633 6.38612 2.20007 6.29333 2.29302L3.58133 5.00502C3.20133 5.38502 2.98733 5.90702 2.99533 6.44002C3.01833 7.86402 3.39533 12.81 7.29333 16.708C11.1913 20.606 16.1373 20.982 17.5623 21.006H17.5903C18.1183 21.006 18.6173 20.798 18.9953 20.42L21.7073 17.708C21.8003 17.6152 21.874 17.505 21.9243 17.3837C21.9746 17.2624 22.0005 17.1324 22.0005 17.001C22.0005 16.8697 21.9746 16.7396 21.9243 16.6183C21.874 16.497 21.8003 16.3868 21.7073 16.294L17.7073 12.293ZM17.5803 19.005C16.3323 18.984 12.0623 18.649 8.70733 15.293C5.34133 11.927 5.01533 7.64202 4.99533 6.41902L7.00033 4.41402L9.58633 7.00002L8.29333 8.29302C8.1758 8.41047 8.08938 8.55536 8.04189 8.71459C7.9944 8.87382 7.98733 9.04237 8.02133 9.20502C8.04533 9.32002 8.63233 12.047 10.2923 13.707C11.9523 15.367 14.6793 15.954 14.7943 15.978C14.9569 16.013 15.1256 16.0065 15.285 15.9591C15.4444 15.9118 15.5893 15.8251 15.7063 15.707L17.0003 14.414L19.5863 17L17.5803 19.005Z" fill="#1F394B"/>
</symbol><symbol id="search" viewBox="0 0 20 20">
<path d="M8.41634 16.6667C10.2653 16.6663 12.0609 16.0473 13.5174 14.9083L18.0965 19.4875L19.5695 18.0146L14.9903 13.4354C16.1299 11.9788 16.7492 10.1827 16.7497 8.33333C16.7497 3.73854 13.0111 0 8.41634 0C3.82155 0 0.0830078 3.73854 0.0830078 8.33333C0.0830078 12.9281 3.82155 16.6667 8.41634 16.6667ZM8.41634 2.08333C11.8632 2.08333 14.6663 4.88646 14.6663 8.33333C14.6663 11.7802 11.8632 14.5833 8.41634 14.5833C4.96947 14.5833 2.16634 11.7802 2.16634 8.33333C2.16634 4.88646 4.96947 2.08333 8.41634 2.08333Z" fill="white"/>
</symbol><symbol id="social-youtube" viewBox="0 0 20 20">
<path d="M17.8 6.8C17.6 5.5 17 4.6 15.6 4.4C13.4 4 10 4 10 4C10 4 6.6 4 4.4 4.4C3 4.6 2.3 5.5 2.2 6.8C2 8.1 2 10 2 10C2 10 2 11.9 2.2 13.2C2.4 14.5 3 15.4 4.4 15.6C6.6 16 10 16 10 16C10 16 13.4 16 15.6 15.6C17 15.3 17.6 14.5 17.8 13.2C18 11.9 18 10 18 10C18 10 18 8.1 17.8 6.8ZM8 13V7L13 10L8 13Z" fill="currentColor"/>
</symbol><symbol id="tw" viewBox="0 0 37 37">
<path fill-rule="evenodd" clip-rule="evenodd" d="M12.802 13.6907V17.0215H14.4677V22.0185C14.599 26.1045 16.845 26.9558 19.4641 27.2376C20.9865 27.1612 22.8516 26.5976 23.7943 25.849V23.0179C22.5817 24.1964 19.3262 25.3522 18.7423 22.0185L18.6862 16.9666L23.7943 17.0221V13.6358H18.6862L18.7978 9.3606L16.7441 9.41612C16.885 13.0621 14.9471 13.5504 12.802 13.6907ZM18.2981 36.209C8.4068 36.209 0.387695 28.1898 0.387695 18.2985C0.387695 8.40657 8.4068 0.388062 18.2981 0.388062C28.1895 0.388062 36.2086 8.40657 36.2086 18.2985C36.2086 28.1898 28.1895 36.209 18.2981 36.209Z" fill="#1F394B"/>
</symbol><symbol id="user" viewBox="0 0 19 20">
<path d="M9.5 0C6.62812 0 4.29167 2.33646 4.29167 5.20833C4.29167 8.08021 6.62812 10.4167 9.5 10.4167C12.3719 10.4167 14.7083 8.08021 14.7083 5.20833C14.7083 2.33646 12.3719 0 9.5 0ZM9.5 8.33333C7.77708 8.33333 6.375 6.93125 6.375 5.20833C6.375 3.48542 7.77708 2.08333 9.5 2.08333C11.2229 2.08333 12.625 3.48542 12.625 5.20833C12.625 6.93125 11.2229 8.33333 9.5 8.33333ZM18.875 19.7917V18.75C18.875 14.7302 15.6031 11.4583 11.5833 11.4583H7.41667C3.39583 11.4583 0.125 14.7302 0.125 18.75V19.7917H2.20833V18.75C2.20833 15.8781 4.54479 13.5417 7.41667 13.5417H11.5833C14.4552 13.5417 16.7917 15.8781 16.7917 18.75V19.7917H18.875Z" fill="white"/>
</symbol><symbol id="yt" viewBox="0 0 37 37">
<path fill-rule="evenodd" clip-rule="evenodd" d="M23.9859 22.6806C23.8199 22.6806 23.7005 22.7272 23.6277 22.8263C23.5555 22.9194 23.5202 23.0794 23.5202 23.3015V23.8364H24.4414V23.3015C24.4414 23.0794 24.4044 22.9194 24.331 22.8263C24.2617 22.7272 24.1441 22.6806 23.9859 22.6806ZM20.3931 22.6621C20.5328 22.6621 20.642 22.7075 20.7178 22.7994C20.7913 22.8913 20.8283 23.0281 20.8283 23.2066V25.9433C20.8283 26.114 20.7966 26.234 20.7369 26.3081C20.6772 26.3839 20.5841 26.4209 20.4564 26.4209C20.368 26.4209 20.285 26.4012 20.205 26.3636C20.1244 26.3266 20.0414 26.2615 19.9572 26.1767V22.8746C20.0283 22.8018 20.0999 22.7475 20.1722 22.7128C20.2444 22.6776 20.3178 22.6621 20.3931 22.6621ZM23.5208 24.6615V25.6597C23.5208 25.9391 23.5549 26.1325 23.6223 26.2412C23.6928 26.3493 23.8092 26.4018 23.9757 26.4018C24.1483 26.4018 24.2689 26.3564 24.3375 26.2651C24.4056 26.1737 24.442 25.9731 24.442 25.6603V25.4185H25.5137V25.6907C25.5137 26.2346 25.3841 26.6436 25.1214 26.92C24.8617 27.194 24.4713 27.3301 23.9525 27.3301C23.4862 27.3301 23.1178 27.1857 22.8498 26.8937C22.5823 26.6036 22.4462 26.203 22.4462 25.6913V23.3116C22.4462 22.8531 22.5949 22.477 22.8892 22.1881C23.1835 21.8985 23.5626 21.754 24.0301 21.754C24.5071 21.754 24.8737 21.8884 25.1304 22.1564C25.3865 22.4239 25.5137 22.809 25.5137 23.3116V24.6633H23.5208V24.6615ZM21.6552 26.9522C21.4934 27.1528 21.2558 27.2513 20.9465 27.2513C20.7417 27.2513 20.5608 27.2143 20.402 27.1367C20.2426 27.0597 20.0922 26.9415 19.9566 26.7779V27.1845H18.9035V20.0012H19.9566V22.3146C20.0981 22.1534 20.2462 22.0293 20.4032 21.9463C20.5626 21.8615 20.722 21.8203 20.8838 21.8203C21.2146 21.8203 21.4659 21.9331 21.639 22.1576C21.8146 22.3839 21.9005 22.7146 21.9005 23.1487V26.0896C21.9005 26.4645 21.8187 26.7516 21.6552 26.9522ZM17.079 27.1845V26.6018C16.885 26.8173 16.6862 26.9815 16.4766 27.0925C16.2683 27.2066 16.0671 27.2609 15.8713 27.2609C15.6295 27.2609 15.4504 27.1839 15.3262 27.0245C15.2062 26.8657 15.1441 26.6316 15.1441 26.3146V21.8836H16.1853V25.9487C16.1853 26.0746 16.2074 26.1648 16.2492 26.2215C16.2952 26.2782 16.3662 26.3057 16.4629 26.3057C16.5393 26.3057 16.6372 26.2687 16.7543 26.1934C16.8719 26.1188 16.9781 26.0245 17.0778 25.9098V21.8836H18.119V27.1839H17.079V27.1845ZM13.4719 21.0448V27.1845H12.2969V21.0448H11.0826V20.0012H14.6862V21.0448H13.4719ZM18.2946 17.6884C18.2946 17.6878 25.5065 17.6991 26.3626 18.554C27.2217 19.4107 27.2313 23.637 27.2313 23.6615C27.2313 23.6615 27.2241 27.9104 26.3626 28.7696C25.5065 29.6233 18.2946 29.6418 18.2946 29.6418C18.2946 29.6418 11.0832 29.6233 10.2253 28.769C9.3668 27.9122 9.36501 23.6931 9.36501 23.6609C9.36501 23.6364 9.3674 19.4101 10.2253 18.5534C11.0838 17.6991 18.2946 17.6878 18.2946 17.6884ZM23.9817 15.4657H22.808V14.8209C22.5943 15.0579 22.3686 15.2406 22.1334 15.3636C21.8993 15.4878 21.6731 15.5499 21.4528 15.5499C21.1793 15.5499 20.9769 15.4627 20.8396 15.289C20.7029 15.1152 20.6337 14.8549 20.6337 14.5063V9.62746H21.805V14.1033C21.805 14.2412 21.8319 14.3415 21.8808 14.403C21.9286 14.4651 22.0098 14.4961 22.119 14.4961C22.2044 14.4961 22.3143 14.4549 22.4462 14.3731C22.5775 14.2913 22.6987 14.1869 22.8074 14.0585V9.62746H23.9811V15.4657H23.9817ZM17.6098 14.4704C17.6928 14.5582 17.8122 14.6012 17.968 14.6012C18.1268 14.6012 18.2522 14.5564 18.3465 14.4681C18.4402 14.3773 18.4868 14.2543 18.4868 14.0991V10.9188C18.4868 10.791 18.439 10.6878 18.3429 10.609C18.2474 10.5307 18.122 10.4919 17.968 10.4919C17.8241 10.4919 17.7083 10.5307 17.6181 10.609C17.5298 10.6878 17.4838 10.791 17.4838 10.9188V14.0991C17.4838 14.2585 17.5268 14.3815 17.6098 14.4704ZM16.7507 9.88239C17.0659 9.61433 17.4916 9.48 18.0235 9.48C18.5083 9.48 18.9071 9.62149 19.2181 9.90448C19.5268 10.1869 19.682 10.551 19.682 10.9958V14.0113C19.682 14.5104 19.5298 14.9015 19.2271 15.1863C18.9208 15.4704 18.5035 15.6125 17.9698 15.6125C17.4575 15.6125 17.0462 15.4657 16.7375 15.1731C16.4313 14.8794 16.2766 14.4848 16.2766 13.9887V10.963C16.2761 10.5099 16.4337 10.1499 16.7507 9.88239ZM13.0814 7.55224H11.7507L13.3232 12.3301V15.4657H14.6444V12.1821L16.1811 7.55224H14.8378L14.0223 10.7152H13.9393L13.0814 7.55224ZM18.2981 36.209C8.4068 36.209 0.387695 28.1898 0.387695 18.2985C0.387695 8.40657 8.4068 0.388062 18.2981 0.388062C28.1895 0.388062 36.2086 8.40657 36.2086 18.2985C36.2086 28.1898 28.1895 36.209 18.2981 36.209Z" fill="#1F394B"/>
</symbol></svg>